<?xml version="1.0" encoding="utf-8"?>
<!-- Generator: Adobe Illustrator 19.1.0, SVG Export Plug-In . SVG Version: 6.00 Build 0)  -->
<svg version="1.1" id="Santander" xmlns="http://www.w3.org/2000/svg" xmlns:xlink="http://www.w3.org/1999/xlink" x="0px" y="0px"
	 viewBox="-129 109.5 240.5 45.5" style="enable-background:new -129 109.5 240.5 45.5;" xml:space="preserve">
<style type="text/css">
	.st0{fill:#FFFFFF;}
</style>
<title>Santander</title>
<g>
	<path class="st0" d="M-96.4,130.6c-0.1-1.5-0.5-3-1.3-4.3l-6.8-11.9c-0.5-0.9-0.9-1.9-1.1-2.9l-0.3,0.5c-1.7,2.9-1.7,6.6,0,9.5
		l5.5,9.5c1.7,2.9,1.7,6.6,0,9.5l-0.3,0.5c-0.2-1-0.6-2-1.1-2.9l-5-8.7l-3.2-5.6c-0.5-0.9-0.9-1.9-1.1-2.9l-0.3,0.5
		c-1.7,2.9-1.7,6.5,0,9.5l0,0l5.5,9.5c1.7,2.9,1.7,6.6,0,9.5l-0.3,0.5c-0.2-1-0.6-2-1.1-2.9l-6.9-11.9c-0.9-1.6-1.3-3.4-1.3-5.2
		c-7.3,1.9-12.4,6-12.4,10.7c0,6.6,9.8,11.9,21.9,11.9s21.9-5.3,21.9-11.9C-84,136.6-89,132.5-96.4,130.6z M-75.7,150.9
		c0.1-1.7,0.3-2.8,0.8-4.2c2.3,1.1,5.3,1.6,7.5,1.6c3.8,0,6-1.2,6-3.7c0-2.4-1.6-3.5-5.4-5.2l-2.1-0.8c-3.9-1.7-6.5-3.9-6.5-8.2
		c0-4.7,3.3-7.7,9.9-7.7c2.7,0,5.2,0.4,7.5,1.2c-0.1,1.6-0.4,2.9-0.8,4.1c-2.2-0.8-4.9-1.2-6.8-1.2c-3.6,0-5.2,1.4-5.2,3.6
		c0,2.1,1.6,3.4,4.5,4.6l2.2,0.9c5.2,2.2,7.4,4.6,7.4,8.6c0,4.7-3.6,8-10.6,8C-70.6,152.5-73.4,152-75.7,150.9z M-34.6,131.2v20.6
		h-4.2l-0.2-2.5c-1.2,1.8-2.9,3-5.8,3c-5.4,0-9.1-4-9.1-10.9c0-7.2,3.9-11.4,11.5-11.4C-39.4,130.1-36.9,130.4-34.6,131.2z
		 M-39.1,147.1v-12.9c-0.9-0.2-2-0.2-3.3-0.2c-4.7,0-6.9,2.9-6.9,7.5c0,4.2,1.7,7.2,5.7,7.2C-41.7,148.6-40.3,148-39.1,147.1z
		 M-11.4,138v13.8h-4.5v-13c0-3.3-1.1-4.8-5.6-4.8c-1.1,0-2.3,0.1-3.6,0.3v17.5h-4.5v-20.6c2.9-0.7,6.1-1.2,8.2-1.2
		C-13.8,130.1-11.4,133-11.4,138z M1.2,148.5c1.3,0,2.6-0.2,3.5-0.6c-0.1,1.2-0.3,2.6-0.5,3.8c-1.2,0.5-2.6,0.7-3.8,0.7
		c-4.4,0-7.2-2-7.2-7v-21.7c1.4-0.5,3.1-0.7,4.5-0.7v7.8h7.2c-0.1,1.4-0.2,2.7-0.4,3.9h-6.8v10.1C-2.3,147.4-1,148.5,1.2,148.5z
		 M25.5,131.2v20.6h-4.2l-0.2-2.5c-1.2,1.8-2.9,3-5.8,3c-5.4,0-9.1-4-9.1-10.9c0-7.2,3.9-11.4,11.5-11.4
		C20.7,130.1,23.1,130.4,25.5,131.2z M20.9,147.1v-12.9c-0.9-0.2-2-0.2-3.3-0.2c-4.7,0-6.9,2.9-6.9,7.5c0,4.2,1.7,7.2,5.7,7.2
		C18.3,148.6,19.8,148,20.9,147.1z M48.7,138v13.8h-4.6v-13c0-3.3-1.1-4.8-5.6-4.8c-1.1,0-2.3,0.1-3.6,0.3v17.5h-4.5v-20.6
		c2.9-0.7,6.1-1.2,8.2-1.2C46.2,130.1,48.7,133,48.7,138z M71.6,123v28.8h-4.2l-0.2-2.6c-1.2,1.9-2.9,3.1-5.9,3.1
		c-5.4,0-9.1-4-9.1-10.9c0-7.2,3.9-11.4,11.5-11.4c1.2,0,2.3,0.1,3.4,0.3v-6.8C68.5,123.1,70.1,123,71.6,123z M67.1,147.1v-12.7
		c-1.2-0.2-2.4-0.4-3.6-0.4c-4.5,0-6.6,2.8-6.6,7.5c0,4.2,1.7,7.2,5.7,7.2C64.4,148.6,65.9,148,67.1,147.1z M94.4,143H79.9
		c0.6,3.7,2.7,5.4,6.8,5.4c2.5,0,5-0.5,7.2-1.6c-0.2,1.2-0.4,2.8-0.7,4.1c-2.1,0.9-4.2,1.3-6.7,1.3c-7.6,0-11.2-4.2-11.2-11.2
		c0-6.1,2.8-11,10-11c6.5,0,9.3,4.2,9.3,9.4C94.6,140.8,94.6,141.8,94.4,143z M79.9,139.2h10.2c0-3.4-1.8-5.4-4.9-5.4
		C81.9,133.9,80.2,135.7,79.9,139.2z M110.3,130.3c0,1.4-0.2,3-0.4,3.9c-1.1-0.1-2.1-0.2-3.4-0.2c-1.1,0-2.2,0.1-3.3,0.2v17.6h-4.5
		v-20.6c1.9-0.7,5.2-1.2,7.7-1.2C107.7,130.1,109.3,130.1,110.3,130.3z"/>
</g>
</svg>
