<?xml version="1.0" encoding="UTF-8" standalone="no"?>
<!-- Generator: Adobe Illustrator 19.1.0, SVG Export Plug-In . SVG Version: 6.00 Build 0)  -->

<svg
   xmlns:dc="http://purl.org/dc/elements/1.1/"
   xmlns:cc="http://creativecommons.org/ns#"
   xmlns:rdf="http://www.w3.org/1999/02/22-rdf-syntax-ns#"
   xmlns:svg="http://www.w3.org/2000/svg"
   xmlns="http://www.w3.org/2000/svg"
   xmlns:sodipodi="http://sodipodi.sourceforge.net/DTD/sodipodi-0.dtd"
   xmlns:inkscape="http://www.inkscape.org/namespaces/inkscape"
   version="1.1"
   id="Capa_1"
   x="0px"
   y="0px"
   viewBox="0 0 154.39999 154.39999"
   xml:space="preserve"
   inkscape:version="0.48.4 r9939"
   width="100%"
   height="100%"
   sodipodi:docname="SANTANDER_RIO_MODAL.svg"><metadata
     id="metadata3223"><rdf:RDF><cc:Work
         rdf:about=""><dc:format>image/svg+xml</dc:format><dc:type
           rdf:resource="http://purl.org/dc/dcmitype/StillImage" /><dc:title></dc:title></cc:Work></rdf:RDF></metadata><defs
     id="defs3221" /><sodipodi:namedview
     pagecolor="#ffffff"
     bordercolor="#666666"
     borderopacity="1"
     objecttolerance="10"
     gridtolerance="10"
     guidetolerance="10"
     inkscape:pageopacity="0"
     inkscape:pageshadow="2"
     inkscape:window-width="1600"
     inkscape:window-height="848"
     id="namedview3219"
     showgrid="false"
     inkscape:snap-global="false"
     fit-margin-top="0"
     fit-margin-left="0"
     fit-margin-right="0"
     fit-margin-bottom="0"
     inkscape:zoom="2.0301075"
     inkscape:cx="150.02999"
     inkscape:cy="89.935722"
     inkscape:window-x="0"
     inkscape:window-y="0"
     inkscape:window-maximized="1"
     inkscape:current-layer="Capa_1" /><style
     type="text/css"
     id="style3125">
	.st0{fill:#F2F2F2;}
	.st1{fill:#EE332B;}
	.st2{fill:#9F9F9F;}
	.st3{fill:#242424;}
	.st4{fill:#DBDBDB;}
	.st5{fill:#95120D;}
	.st6{fill:#D92921;}
	.st7{fill:none;}
	.st8{font-family:'Lato-Bold';}
	.st9{font-size:31px;}
	.st10{fill:#767575;}
	.st11{font-family:'Lato-Regular';}
	.st12{font-size:18px;}
	.st13{fill:none;stroke:#D92921;stroke-width:2;stroke-miterlimit:10;}
	.st14{font-family:'Lato-Semibold';}
	.st15{font-size:14.7687px;}
	.st16{fill:none;stroke:#FFFFFF;stroke-width:5;stroke-miterlimit:10;}
	.st17{fill:none;stroke:#FFFFFF;stroke-width:3;stroke-miterlimit:10;}
</style><circle
     class="st1"
     cx="219.7"
     cy="173.10001"
     r="77.199997"
     id="circle3129"
     sodipodi:cx="219.7"
     sodipodi:cy="173.10001"
     sodipodi:rx="77.199997"
     sodipodi:ry="77.199997"
     style="fill:#ee332b"
     transform="translate(-142.5,-95.900009)" /><rect
     x="-1545.3"
     y="1820.2"
     class="st2"
     width="140.2"
     height="138"
     id="rect3131"
     style="fill:#9f9f9f" /><rect
     x="-1685.5"
     y="1820.2"
     class="st3"
     width="140.2"
     height="138"
     id="rect3133"
     style="fill:#242424" /><rect
     x="-1405.2"
     y="1820.2"
     class="st4"
     width="140.2"
     height="138"
     id="rect3135"
     style="fill:#dbdbdb" /><rect
     x="-1265"
     y="1820.2"
     class="st5"
     width="140.2"
     height="138"
     id="rect3137"
     style="fill:#95120d" /><rect
     x="-1124.8"
     y="1820.2"
     class="st6"
     width="140.2"
     height="138"
     id="rect3139"
     style="fill:#d92921" /><rect
     x="-984.59998"
     y="1820.2"
     class="st1"
     width="140.2"
     height="138"
     id="rect3141"
     style="fill:#ee332b" /><g
     id="g3163"
     transform="translate(-142.5,-95.900009)"><g
       id="g3165"><g
         id="g3167"><circle
           class="st16"
           cx="197"
           cy="144.2"
           r="26"
           id="circle3169"
           sodipodi:cx="197"
           sodipodi:cy="144.2"
           sodipodi:rx="26"
           sodipodi:ry="26"
           style="fill:none;stroke:#ffffff;stroke-width:5;stroke-miterlimit:10"
           d="m 223,144.2 c 0,14.3594 -11.6406,26 -26,26 -14.3594,0 -26,-11.6406 -26,-26 0,-14.35941 11.6406,-26 26,-26 14.3594,0 26,11.64059 26,26 z" /><path
           class="st17"
           d="m 203,170.3 v 34.6 c 0,3.8 -3.2,6.9 -7,6.9 -3.8,0 -7,-3.1 -7,-6.9 v -34.6"
           id="path3171"
           inkscape:connector-curvature="0"
           style="fill:none;stroke:#ffffff;stroke-width:3;stroke-miterlimit:10" /><line
           class="st17"
           x1="196"
           y1="186.3"
           x2="196"
           y2="190.3"
           id="line3173"
           style="fill:none;stroke:#ffffff;stroke-width:3;stroke-miterlimit:10" /><line
           class="st17"
           x1="196"
           y1="193.3"
           x2="196"
           y2="197.3"
           id="line3175"
           style="fill:none;stroke:#ffffff;stroke-width:3;stroke-miterlimit:10" /><line
           class="st17"
           x1="196"
           y1="200.3"
           x2="196"
           y2="203.3"
           id="line3177"
           style="fill:none;stroke:#ffffff;stroke-width:3;stroke-miterlimit:10" /></g><polyline
         class="st17"
         points="225.5,130.8 264,130.8 264,210 250.9,227.8 196,227.8 196,217.3   "
         id="polyline3179"
         style="fill:none;stroke:#ffffff;stroke-width:3;stroke-miterlimit:10" /><polyline
         class="st17"
         points="248,225.3 248,211.8 265.5,211.8   "
         id="polyline3181"
         style="fill:none;stroke:#ffffff;stroke-width:3;stroke-miterlimit:10" /><polyline
         class="st17"
         points="209,145.3 209,157.8 185,157.8 185,133.8 204.5,133.8   "
         id="polyline3183"
         style="fill:none;stroke:#ffffff;stroke-width:3;stroke-miterlimit:10" /><polyline
         class="st17"
         points="211.1,135.6 199,147.7 193.8,142.5   "
         id="polyline3185"
         style="fill:none;stroke:#ffffff;stroke-width:3;stroke-miterlimit:10" /><rect
         x="210"
         y="177.8"
         class="st17"
         width="7"
         height="7"
         id="rect3187"
         style="fill:none;stroke:#ffffff;stroke-width:3;stroke-miterlimit:10" /><rect
         x="210"
         y="191.8"
         class="st17"
         width="7"
         height="7"
         id="rect3189"
         style="fill:none;stroke:#ffffff;stroke-width:3;stroke-miterlimit:10" /><rect
         x="210"
         y="205.8"
         class="st17"
         width="7"
         height="6"
         id="rect3191"
         style="fill:none;stroke:#ffffff;stroke-width:3;stroke-miterlimit:10" /><line
         class="st17"
         x1="256.5"
         y1="177.8"
         x2="224.5"
         y2="177.8"
         id="line3193"
         style="fill:none;stroke:#ffffff;stroke-width:3;stroke-miterlimit:10" /><line
         class="st17"
         x1="256.5"
         y1="184.8"
         x2="224.5"
         y2="184.8"
         id="line3195"
         style="fill:none;stroke:#ffffff;stroke-width:3;stroke-miterlimit:10" /><line
         class="st17"
         x1="256.5"
         y1="191.8"
         x2="224.5"
         y2="191.8"
         id="line3197"
         style="fill:none;stroke:#ffffff;stroke-width:3;stroke-miterlimit:10" /><line
         class="st17"
         x1="256.5"
         y1="198.8"
         x2="224.5"
         y2="198.8"
         id="line3199"
         style="fill:none;stroke:#ffffff;stroke-width:3;stroke-miterlimit:10" /><line
         class="st17"
         x1="241.5"
         y1="211.8"
         x2="224.5"
         y2="211.8"
         id="line3201"
         style="fill:none;stroke:#ffffff;stroke-width:3;stroke-miterlimit:10" /><line
         class="st17"
         x1="256.5"
         y1="205.8"
         x2="224.5"
         y2="205.8"
         id="line3203"
         style="fill:none;stroke:#ffffff;stroke-width:3;stroke-miterlimit:10" /><polyline
         class="st17"
         points="229.5,149.8 254,149.8 254,166.8 224.5,166.8   "
         id="polyline3205"
         style="fill:none;stroke:#ffffff;stroke-width:3;stroke-miterlimit:10" /><line
         class="st17"
         x1="256.5"
         y1="142.8"
         x2="253.5"
         y2="142.8"
         id="line3207"
         style="fill:none;stroke:#ffffff;stroke-width:3;stroke-miterlimit:10" /><line
         class="st17"
         x1="249.5"
         y1="142.8"
         x2="246.5"
         y2="142.8"
         id="line3209"
         style="fill:none;stroke:#ffffff;stroke-width:3;stroke-miterlimit:10" /><line
         class="st17"
         x1="242.5"
         y1="142.8"
         x2="239.5"
         y2="142.8"
         id="line3211"
         style="fill:none;stroke:#ffffff;stroke-width:3;stroke-miterlimit:10" /></g></g><circle
     id="circle3243"
     r="77.199997"
     cy="173.10001"
     cx="219.7"
     class="st1"
     sodipodi:cx="219.7"
     sodipodi:cy="173.10001"
     sodipodi:rx="77.199997"
     sodipodi:ry="77.199997"
     style="fill:#ee332b"
     transform="translate(-142.5,-95.900009)" /><g
     id="g3245"
     transform="translate(-142.5,-95.900009)"><g
       id="g3247"><g
         id="g3249"><circle
           id="circle3251"
           r="26"
           cy="144.2"
           cx="197"
           class="st16"
           sodipodi:cx="197"
           sodipodi:cy="144.2"
           sodipodi:rx="26"
           sodipodi:ry="26"
           style="fill:none;stroke:#ffffff;stroke-width:5;stroke-miterlimit:10"
           d="m 223,144.2 c 0,14.3594 -11.6406,26 -26,26 -14.3594,0 -26,-11.6406 -26,-26 0,-14.35941 11.6406,-26 26,-26 14.3594,0 26,11.64059 26,26 z" /><path
           id="path3253"
           d="m 203,170.3 v 34.6 c 0,3.8 -3.2,6.9 -7,6.9 -3.8,0 -7,-3.1 -7,-6.9 v -34.6"
           class="st17"
           inkscape:connector-curvature="0"
           style="fill:none;stroke:#ffffff;stroke-width:3;stroke-miterlimit:10" /><line
           id="line3255"
           y2="190.3"
           x2="196"
           y1="186.3"
           x1="196"
           class="st17"
           style="fill:none;stroke:#ffffff;stroke-width:3;stroke-miterlimit:10" /><line
           id="line3257"
           y2="197.3"
           x2="196"
           y1="193.3"
           x1="196"
           class="st17"
           style="fill:none;stroke:#ffffff;stroke-width:3;stroke-miterlimit:10" /><line
           id="line3259"
           y2="203.3"
           x2="196"
           y1="200.3"
           x1="196"
           class="st17"
           style="fill:none;stroke:#ffffff;stroke-width:3;stroke-miterlimit:10" /></g><polyline
         id="polyline3261"
         points="225.5,130.8 264,130.8 264,210 250.9,227.8 196,227.8 196,217.3   "
         class="st17"
         style="fill:none;stroke:#ffffff;stroke-width:3;stroke-miterlimit:10" /><polyline
         id="polyline3263"
         points="248,225.3 248,211.8 265.5,211.8   "
         class="st17"
         style="fill:none;stroke:#ffffff;stroke-width:3;stroke-miterlimit:10" /><polyline
         id="polyline3265"
         points="209,145.3 209,157.8 185,157.8 185,133.8 204.5,133.8   "
         class="st17"
         style="fill:none;stroke:#ffffff;stroke-width:3;stroke-miterlimit:10" /><polyline
         id="polyline3267"
         points="211.1,135.6 199,147.7 193.8,142.5   "
         class="st17"
         style="fill:none;stroke:#ffffff;stroke-width:3;stroke-miterlimit:10" /><rect
         id="rect3269"
         height="7"
         width="7"
         class="st17"
         y="177.8"
         x="210"
         style="fill:none;stroke:#ffffff;stroke-width:3;stroke-miterlimit:10" /><rect
         id="rect3271"
         height="7"
         width="7"
         class="st17"
         y="191.8"
         x="210"
         style="fill:none;stroke:#ffffff;stroke-width:3;stroke-miterlimit:10" /><rect
         id="rect3273"
         height="6"
         width="7"
         class="st17"
         y="205.8"
         x="210"
         style="fill:none;stroke:#ffffff;stroke-width:3;stroke-miterlimit:10" /><line
         id="line3275"
         y2="177.8"
         x2="224.5"
         y1="177.8"
         x1="256.5"
         class="st17"
         style="fill:none;stroke:#ffffff;stroke-width:3;stroke-miterlimit:10" /><line
         id="line3277"
         y2="184.8"
         x2="224.5"
         y1="184.8"
         x1="256.5"
         class="st17"
         style="fill:none;stroke:#ffffff;stroke-width:3;stroke-miterlimit:10" /><line
         id="line3279"
         y2="191.8"
         x2="224.5"
         y1="191.8"
         x1="256.5"
         class="st17"
         style="fill:none;stroke:#ffffff;stroke-width:3;stroke-miterlimit:10" /><line
         id="line3281"
         y2="198.8"
         x2="224.5"
         y1="198.8"
         x1="256.5"
         class="st17"
         style="fill:none;stroke:#ffffff;stroke-width:3;stroke-miterlimit:10" /><line
         id="line3283"
         y2="211.8"
         x2="224.5"
         y1="211.8"
         x1="241.5"
         class="st17"
         style="fill:none;stroke:#ffffff;stroke-width:3;stroke-miterlimit:10" /><line
         id="line3285"
         y2="205.8"
         x2="224.5"
         y1="205.8"
         x1="256.5"
         class="st17"
         style="fill:none;stroke:#ffffff;stroke-width:3;stroke-miterlimit:10" /><polyline
         id="polyline3287"
         points="229.5,149.8 254,149.8 254,166.8 224.5,166.8   "
         class="st17"
         style="fill:none;stroke:#ffffff;stroke-width:3;stroke-miterlimit:10" /><line
         id="line3289"
         y2="142.8"
         x2="253.5"
         y1="142.8"
         x1="256.5"
         class="st17"
         style="fill:none;stroke:#ffffff;stroke-width:3;stroke-miterlimit:10" /><line
         id="line3291"
         y2="142.8"
         x2="246.5"
         y1="142.8"
         x1="249.5"
         class="st17"
         style="fill:none;stroke:#ffffff;stroke-width:3;stroke-miterlimit:10" /><line
         id="line3293"
         y2="142.8"
         x2="239.5"
         y1="142.8"
         x1="242.5"
         class="st17"
         style="fill:none;stroke:#ffffff;stroke-width:3;stroke-miterlimit:10" /></g></g><circle
     class="st1"
     cx="219.7"
     cy="173.10001"
     r="77.199997"
     id="circle3295"
     sodipodi:cx="219.7"
     sodipodi:cy="173.10001"
     sodipodi:rx="77.199997"
     sodipodi:ry="77.199997"
     style="fill:#ee332b"
     transform="translate(-142.5,-95.900009)" /><g
     id="g3297"
     transform="translate(-142.5,-95.900009)"><g
       id="g3299"><g
         id="g3301"><circle
           class="st16"
           cx="197"
           cy="144.2"
           r="26"
           id="circle3303"
           sodipodi:cx="197"
           sodipodi:cy="144.2"
           sodipodi:rx="26"
           sodipodi:ry="26"
           style="fill:none;stroke:#ffffff;stroke-width:5;stroke-miterlimit:10"
           d="m 223,144.2 c 0,14.3594 -11.6406,26 -26,26 -14.3594,0 -26,-11.6406 -26,-26 0,-14.35941 11.6406,-26 26,-26 14.3594,0 26,11.64059 26,26 z" /><path
           class="st17"
           d="m 203,170.3 v 34.6 c 0,3.8 -3.2,6.9 -7,6.9 -3.8,0 -7,-3.1 -7,-6.9 v -34.6"
           id="path3305"
           inkscape:connector-curvature="0"
           style="fill:none;stroke:#ffffff;stroke-width:3;stroke-miterlimit:10" /><line
           class="st17"
           x1="196"
           y1="186.3"
           x2="196"
           y2="190.3"
           id="line3307"
           style="fill:none;stroke:#ffffff;stroke-width:3;stroke-miterlimit:10" /><line
           class="st17"
           x1="196"
           y1="193.3"
           x2="196"
           y2="197.3"
           id="line3309"
           style="fill:none;stroke:#ffffff;stroke-width:3;stroke-miterlimit:10" /><line
           class="st17"
           x1="196"
           y1="200.3"
           x2="196"
           y2="203.3"
           id="line3311"
           style="fill:none;stroke:#ffffff;stroke-width:3;stroke-miterlimit:10" /></g><polyline
         class="st17"
         points="225.5,130.8 264,130.8 264,210 250.9,227.8 196,227.8 196,217.3   "
         id="polyline3313"
         style="fill:none;stroke:#ffffff;stroke-width:3;stroke-miterlimit:10" /><polyline
         class="st17"
         points="248,225.3 248,211.8 265.5,211.8   "
         id="polyline3315"
         style="fill:none;stroke:#ffffff;stroke-width:3;stroke-miterlimit:10" /><polyline
         class="st17"
         points="209,145.3 209,157.8 185,157.8 185,133.8 204.5,133.8   "
         id="polyline3317"
         style="fill:none;stroke:#ffffff;stroke-width:3;stroke-miterlimit:10" /><polyline
         class="st17"
         points="211.1,135.6 199,147.7 193.8,142.5   "
         id="polyline3319"
         style="fill:none;stroke:#ffffff;stroke-width:3;stroke-miterlimit:10" /><rect
         x="210"
         y="177.8"
         class="st17"
         width="7"
         height="7"
         id="rect3321"
         style="fill:none;stroke:#ffffff;stroke-width:3;stroke-miterlimit:10" /><rect
         x="210"
         y="191.8"
         class="st17"
         width="7"
         height="7"
         id="rect3323"
         style="fill:none;stroke:#ffffff;stroke-width:3;stroke-miterlimit:10" /><rect
         x="210"
         y="205.8"
         class="st17"
         width="7"
         height="6"
         id="rect3325"
         style="fill:none;stroke:#ffffff;stroke-width:3;stroke-miterlimit:10" /><line
         class="st17"
         x1="256.5"
         y1="177.8"
         x2="224.5"
         y2="177.8"
         id="line3327"
         style="fill:none;stroke:#ffffff;stroke-width:3;stroke-miterlimit:10" /><line
         class="st17"
         x1="256.5"
         y1="184.8"
         x2="224.5"
         y2="184.8"
         id="line3329"
         style="fill:none;stroke:#ffffff;stroke-width:3;stroke-miterlimit:10" /><line
         class="st17"
         x1="256.5"
         y1="191.8"
         x2="224.5"
         y2="191.8"
         id="line3331"
         style="fill:none;stroke:#ffffff;stroke-width:3;stroke-miterlimit:10" /><line
         class="st17"
         x1="256.5"
         y1="198.8"
         x2="224.5"
         y2="198.8"
         id="line3333"
         style="fill:none;stroke:#ffffff;stroke-width:3;stroke-miterlimit:10" /><line
         class="st17"
         x1="241.5"
         y1="211.8"
         x2="224.5"
         y2="211.8"
         id="line3335"
         style="fill:none;stroke:#ffffff;stroke-width:3;stroke-miterlimit:10" /><line
         class="st17"
         x1="256.5"
         y1="205.8"
         x2="224.5"
         y2="205.8"
         id="line3337"
         style="fill:none;stroke:#ffffff;stroke-width:3;stroke-miterlimit:10" /><polyline
         class="st17"
         points="229.5,149.8 254,149.8 254,166.8 224.5,166.8   "
         id="polyline3339"
         style="fill:none;stroke:#ffffff;stroke-width:3;stroke-miterlimit:10" /><line
         class="st17"
         x1="256.5"
         y1="142.8"
         x2="253.5"
         y2="142.8"
         id="line3341"
         style="fill:none;stroke:#ffffff;stroke-width:3;stroke-miterlimit:10" /><line
         class="st17"
         x1="249.5"
         y1="142.8"
         x2="246.5"
         y2="142.8"
         id="line3343"
         style="fill:none;stroke:#ffffff;stroke-width:3;stroke-miterlimit:10" /><line
         class="st17"
         x1="242.5"
         y1="142.8"
         x2="239.5"
         y2="142.8"
         id="line3345"
         style="fill:none;stroke:#ffffff;stroke-width:3;stroke-miterlimit:10" /></g></g><circle
     id="circle3347"
     r="77.199997"
     cy="173.10001"
     cx="219.7"
     class="st1"
     sodipodi:cx="219.7"
     sodipodi:cy="173.10001"
     sodipodi:rx="77.199997"
     sodipodi:ry="77.199997"
     style="fill:#ee332b"
     transform="translate(-142.5,-95.900009)" /><g
     id="g3349"
     transform="translate(-142.5,-95.900009)"><g
       id="g3351"><g
         id="g3353"><circle
           id="circle3355"
           r="26"
           cy="144.2"
           cx="197"
           class="st16"
           sodipodi:cx="197"
           sodipodi:cy="144.2"
           sodipodi:rx="26"
           sodipodi:ry="26"
           style="fill:none;stroke:#ffffff;stroke-width:5;stroke-miterlimit:10"
           d="m 223,144.2 c 0,14.3594 -11.6406,26 -26,26 -14.3594,0 -26,-11.6406 -26,-26 0,-14.35941 11.6406,-26 26,-26 14.3594,0 26,11.64059 26,26 z" /><path
           id="path3357"
           d="m 203,170.3 v 34.6 c 0,3.8 -3.2,6.9 -7,6.9 -3.8,0 -7,-3.1 -7,-6.9 v -34.6"
           class="st17"
           inkscape:connector-curvature="0"
           style="fill:none;stroke:#ffffff;stroke-width:3;stroke-miterlimit:10" /><line
           id="line3359"
           y2="190.3"
           x2="196"
           y1="186.3"
           x1="196"
           class="st17"
           style="fill:none;stroke:#ffffff;stroke-width:3;stroke-miterlimit:10" /><line
           id="line3361"
           y2="197.3"
           x2="196"
           y1="193.3"
           x1="196"
           class="st17"
           style="fill:none;stroke:#ffffff;stroke-width:3;stroke-miterlimit:10" /><line
           id="line3363"
           y2="203.3"
           x2="196"
           y1="200.3"
           x1="196"
           class="st17"
           style="fill:none;stroke:#ffffff;stroke-width:3;stroke-miterlimit:10" /></g><polyline
         id="polyline3365"
         points="225.5,130.8 264,130.8 264,210 250.9,227.8 196,227.8 196,217.3   "
         class="st17"
         style="fill:none;stroke:#ffffff;stroke-width:3;stroke-miterlimit:10" /><polyline
         id="polyline3367"
         points="248,225.3 248,211.8 265.5,211.8   "
         class="st17"
         style="fill:none;stroke:#ffffff;stroke-width:3;stroke-miterlimit:10" /><polyline
         id="polyline3369"
         points="209,145.3 209,157.8 185,157.8 185,133.8 204.5,133.8   "
         class="st17"
         style="fill:none;stroke:#ffffff;stroke-width:3;stroke-miterlimit:10" /><polyline
         id="polyline3371"
         points="211.1,135.6 199,147.7 193.8,142.5   "
         class="st17"
         style="fill:none;stroke:#ffffff;stroke-width:3;stroke-miterlimit:10" /><rect
         id="rect3373"
         height="7"
         width="7"
         class="st17"
         y="177.8"
         x="210"
         style="fill:none;stroke:#ffffff;stroke-width:3;stroke-miterlimit:10" /><rect
         id="rect3375"
         height="7"
         width="7"
         class="st17"
         y="191.8"
         x="210"
         style="fill:none;stroke:#ffffff;stroke-width:3;stroke-miterlimit:10" /><rect
         id="rect3377"
         height="6"
         width="7"
         class="st17"
         y="205.8"
         x="210"
         style="fill:none;stroke:#ffffff;stroke-width:3;stroke-miterlimit:10" /><line
         id="line3379"
         y2="177.8"
         x2="224.5"
         y1="177.8"
         x1="256.5"
         class="st17"
         style="fill:none;stroke:#ffffff;stroke-width:3;stroke-miterlimit:10" /><line
         id="line3381"
         y2="184.8"
         x2="224.5"
         y1="184.8"
         x1="256.5"
         class="st17"
         style="fill:none;stroke:#ffffff;stroke-width:3;stroke-miterlimit:10" /><line
         id="line3383"
         y2="191.8"
         x2="224.5"
         y1="191.8"
         x1="256.5"
         class="st17"
         style="fill:none;stroke:#ffffff;stroke-width:3;stroke-miterlimit:10" /><line
         id="line3385"
         y2="198.8"
         x2="224.5"
         y1="198.8"
         x1="256.5"
         class="st17"
         style="fill:none;stroke:#ffffff;stroke-width:3;stroke-miterlimit:10" /><line
         id="line3387"
         y2="211.8"
         x2="224.5"
         y1="211.8"
         x1="241.5"
         class="st17"
         style="fill:none;stroke:#ffffff;stroke-width:3;stroke-miterlimit:10" /><line
         id="line3389"
         y2="205.8"
         x2="224.5"
         y1="205.8"
         x1="256.5"
         class="st17"
         style="fill:none;stroke:#ffffff;stroke-width:3;stroke-miterlimit:10" /><polyline
         id="polyline3391"
         points="229.5,149.8 254,149.8 254,166.8 224.5,166.8   "
         class="st17"
         style="fill:none;stroke:#ffffff;stroke-width:3;stroke-miterlimit:10" /><line
         id="line3393"
         y2="142.8"
         x2="253.5"
         y1="142.8"
         x1="256.5"
         class="st17"
         style="fill:none;stroke:#ffffff;stroke-width:3;stroke-miterlimit:10" /><line
         id="line3395"
         y2="142.8"
         x2="246.5"
         y1="142.8"
         x1="249.5"
         class="st17"
         style="fill:none;stroke:#ffffff;stroke-width:3;stroke-miterlimit:10" /><line
         id="line3397"
         y2="142.8"
         x2="239.5"
         y1="142.8"
         x1="242.5"
         class="st17"
         style="fill:none;stroke:#ffffff;stroke-width:3;stroke-miterlimit:10" /></g></g></svg>